<svg xmlns="http://www.w3.org/2000/svg" width="1026" height="1026" viewBox="0 0 1026 1026">
  <g fill="none" fill-rule="evenodd">
    <path fill="#111827" stroke="#FFF" stroke-width="10" d="M803.754007,289.773678 L802.283142,306.103201 C802.230944,306.6827 802.177628,307.059404 802.099103,307.568324 C801.850189,309.18154 801.299747,312.473289 800.447062,317.44346 C798.755236,327.304851 795.865481,343.82683 791.777753,367.009388 C779.329391,437.607254 739.620646,505.401376 681.263263,555.680024 L681.263263,555.680024 L680.742,556.125 L794.477106,694.219957 L673.480992,694.219957 L609.583,616.626 L609.203501,616.947194 C551.354121,665.469281 480.358425,693.093842 411.073896,694.183947 L408.953491,694.209023 L406.826605,694.219957 L380.126767,694.219957 L395.366043,607.800012 L420.287169,607.800012 C468.660967,607.800012 518.370334,588.739081 558.785639,554.841463 L558.737,554.881 L516.188316,503.215581 L512.251303,503.214957 L385.747581,503.2227 L352.071484,694.219957 L265.526222,694.219957 L299.20228,503.222987 L222.812134,503.223373 L238.046511,416.832351 L318.62945,416.831957 L395.026534,416.808322 L566.019033,416.832666 L629.909,494.405 L630.949297,493.503022 C669.498936,459.848003 695.963647,415.063566 704.969765,368.193698 L705.242733,366.74346 L705.509888,365.261613 L716.814262,302 L793.829,302 L803.754007,289.773678 Z"/>
    <path fill="#111827" stroke="#FFF" stroke-width="10" d="M688.56835,302.222419 L673.337442,388.612816 L243.020716,388.612816 L258.255106,302.222419 L688.56835,302.222419 Z"/>
  </g>
</svg>
