<svg xmlns="http://www.w3.org/2000/svg" width="1026" height="1026" viewBox="0 0 1026 1026">
  <g fill="none" fill-rule="evenodd">
    <path fill="#111827" stroke="#FFF" stroke-width="10" d="M796.468196,340.41731 L791.777753,367.009388 C779.329391,437.607254 739.620646,505.401376 681.263263,555.680024 L681.263263,555.680024 L680.743,556.125 L794.47723,694.217495 L673.481039,694.217495 L609.583,616.626 L609.203476,616.947214 C551.353292,665.469967 480.356429,693.094615 411.070989,694.183992 L408.950556,694.209046 L406.823684,694.217495 L380.126733,694.217495 L395.366066,607.800012 L420.287169,607.800012 C468.660967,607.800012 518.370334,588.739081 558.785639,554.841463 L558.737,554.881 L516.188316,503.215581 L512.251303,503.214957 L385.747581,503.2227 L352.071484,694.219957 L265.526222,694.219957 L299.20228,503.222987 L222.812134,503.223373 L238.046511,416.832351 L318.62945,416.831957 L395.026534,416.808322 L566.019033,416.832666 L629.909,494.405 L630.949297,493.503022 C669.498934,459.848005 695.963643,415.063573 704.969764,368.193708 L705.242731,366.743469 L705.50956,365.2634 L709.891299,340.41731 L796.468196,340.41731 Z M803.18654,302.219957 L794.687253,350.415463 L708.142644,350.415463 L716.641154,302.219957 L803.18654,302.219957 Z"/>
    <path fill="#111827" stroke="#FFF" stroke-width="10" d="M688.56835,302.222419 L673.337442,388.612816 L243.020716,388.612816 L258.255106,302.222419 L688.56835,302.222419 Z"/>
  </g>
</svg>
