<svg xmlns="http://www.w3.org/2000/svg" width="1026" height="1026" viewBox="0 0 1026 1026">
  <g fill="none" fill-rule="evenodd">
    <path fill="#111827" stroke="#FFF" stroke-width="10" d="M802.701116,302 C798.842431,331.307588 797.657116,340.636244 795.698048,350.186437 L795.698048,350.186437 L795.526737,351.012832 C794.575315,355.555586 793.427308,360.276566 791.71185,367.323736 C786.491895,388.767516 739.529831,505.482744 681.263234,555.68005 L681.263234,555.68005 L680.742,556.125 L794.477106,694.219957 L673.480992,694.219957 L609.583,616.626 L609.203501,616.947194 C551.354121,665.469281 480.358425,693.093842 411.073896,694.183947 L408.953491,694.209023 L406.826605,694.219957 L380.126767,694.219957 L395.366043,607.800012 L420.287169,607.800012 C468.660967,607.800012 518.370334,588.739081 558.785639,554.841463 L558.737,554.881 L516.188316,503.215581 L512.251303,503.214957 L385.747581,503.2227 L352.071484,694.219957 L265.526222,694.219957 L299.20228,503.222987 L222.812134,503.223373 L238.046511,416.832351 L318.62945,416.831957 L395.026534,416.808322 L566.019033,416.832666 L629.909,494.405 L630.949297,493.503022 C669.498936,459.848003 695.963647,415.063566 704.969765,368.193698 L705.242733,366.74346 L705.509888,365.261613 L716.814262,302 Z"/>
    <path fill="#111827" stroke="#FFF" stroke-width="10" d="M688.56835,302.222419 L673.337442,388.612816 L243.020716,388.612816 L258.255106,302.222419 L688.56835,302.222419 Z"/>
  </g>
</svg>
